<svg viewBox="0 0 610 570" preserveAspectRatio="xMidYMid meet" id="ddceddhb"><defs id="SvgjsDefs1001"></defs><g id="SvgjsG1007" featurekey="root" fill="#ffffff" transform="matrix(1,0,0,1,0,0)"></g><g id="SvgjsG1008" featurekey="container1" fill="#d29113" transform="matrix(2.595314243721322,0,0,2.595314243721322,50,30)"><defs xmlns="http://www.w3.org/2000/svg"></defs><g xmlns="http://www.w3.org/2000/svg">  
<path d="M98.254,0C44.077,0,0,44.076,0,98.254s44.077,98.254,98.254,98.254c54.177,0,98.254-44.076,98.254-98.254    S152.431,0,98.254,0z M98.254,195.508C44.628,195.508,1,151.88,1,98.254S44.628,1,98.254,1c53.626,0,97.254,43.628,97.254,97.254    S151.88,195.508,98.254,195.508z"></path>  <path d="M98.254,5.453c-51.171,0-92.801,41.63-92.801,92.801s41.63,92.801,92.801,92.801s92.802-41.63,92.802-92.801    S149.425,5.453,98.254,5.453z"></path></g></g><g id="SvgjsG1009" featurekey="symbol1" fill="#ffffff" transform="matrix(1.5681354684336462,0,0,1.5681354684336462,226.88488760813547,131.6410553561568)"><g display="none"><g display="inline" opacity="0.3"><g><path fill="none" stroke="#fff" stroke-linecap="round" stroke-linejoin="round" stroke-miterlimit="10" d="M90.5,82.5     c0,4.418-3.582,8-8,8h-65c-4.418,0-8-3.582-8-8v-65c0-4.418,3.582-8,8-8h65c4.418,0,8,3.582,8,8V82.5z"></path><line fill="none" stroke="#fff" stroke-linecap="round" stroke-linejoin="round" stroke-miterlimit="10" x1="10" y1="22.5" x2="90" y2="22.5"></line><line fill="none" stroke="#fff" stroke-linecap="round" stroke-linejoin="round" stroke-miterlimit="10" x1="16" y1="16.5" x2="28" y2="16.5"></line><circle fill="none" stroke="#fff" stroke-linecap="round" stroke-linejoin="round" stroke-miterlimit="10" cx="62.25" cy="16.5" r="2.436"></circle><circle fill="none" stroke="#fff" stroke-linecap="round" stroke-linejoin="round" stroke-miterlimit="10" cx="72.25" cy="16.5" r="2.436"></circle><circle fill="none" stroke="#fff" stroke-linecap="round" stroke-linejoin="round" stroke-miterlimit="10" cx="82.25" cy="16.5" r="2.436"></circle></g><g><line fill="none" stroke="#fff" stroke-linecap="round" stroke-linejoin="round" stroke-miterlimit="10" x1="23" y1="71.5" x2="65" y2="71.5"></line><circle fill="none" stroke="#fff" stroke-miterlimit="10" cx="76.067" cy="71.167" r="2.8"></circle><line fill="none" stroke="#fff" stroke-linecap="round" stroke-linejoin="round" stroke-miterlimit="10" x1="23" y1="56.5" x2="65" y2="56.5"></line><circle fill="none" stroke="#fff" stroke-miterlimit="10" cx="76.067" cy="56.167" r="2.8"></circle><line fill="none" stroke="#fff" stroke-linecap="round" stroke-linejoin="round" stroke-miterlimit="10" x1="23" y1="41.5" x2="65" y2="41.5"></line><circle fill="none" stroke="#fff" stroke-miterlimit="10" cx="76.067" cy="41.167" r="2.8"></circle></g></g></g><g><g><g><path d="M61.153,91.42c-4.25,0-7.881-0.056-11.101-0.171c-4.052-0.145-9.962-0.218-17.565-0.218     c-8.565,0-16.276,0.096-16.354,0.097l-0.16,0.002c-3.77,0-6.385-4.306-6.912-5.843C9.056,85.271,8.668,84,8.705,83H8.688     l-0.103-1.539c0.188-9.373,0.162-17.893-0.081-26.199C8.201,44.927,8.437,35.377,8.75,24.831     c0.023-0.785,0.038-1.553,0.052-2.319c0.13-6.996,0.252-13.599,7.494-13.783c5.506-0.14,12.188-0.21,19.323-0.21     c7.379,0,14.535,0.082,20.151,0.23c2.495,0.066,5.188-0.005,7.805-0.074c1.925-0.051,3.916-0.103,5.85-0.103     c2.029,0,3.769,0.059,5.32,0.18c0.566,0.044,1.186,0.064,1.95,0.064c0.568,0,1.144-0.011,1.722-0.022     c3.049-0.061,6.291-0.162,9.043,1.5c4.495,2.714,4.224,11.296,4.007,18.191c-0.054,1.694-0.104,3.295-0.076,4.633     c0.129,6.144,0.083,12.325,0.038,18.302c-0.039,5.245-0.08,10.667-0.001,16.043l0.002,0.142     c0.163,11.181,0.271,18.567-2.919,21.805c-1.22,1.238-2.858,1.839-5.009,1.839c-3.483,0-7.122,0.042-10.817,0.083     C68.864,91.376,64.985,91.42,61.153,91.42z M32.487,89.531c7.621,0,13.549,0.074,17.619,0.219     c3.201,0.114,6.814,0.17,11.047,0.17c3.826,0,7.7-0.044,11.512-0.087c3.701-0.042,7.346-0.083,10.834-0.083     c1.729,0,3.018-0.456,3.941-1.392c2.75-2.791,2.646-9.927,2.488-20.73l-0.002-0.142c-0.079-5.392-0.038-10.823,0.001-16.076     c0.045-5.967,0.091-12.137-0.038-18.26c-0.029-1.377,0.022-2.997,0.076-4.712c0.205-6.504,0.46-14.6-3.283-16.86     c-2.398-1.448-5.412-1.339-8.239-1.285c-0.588,0.012-1.173,0.023-1.751,0.023c-0.804,0-1.461-0.022-2.066-0.069     c-1.512-0.118-3.214-0.175-5.204-0.175c-1.915,0-3.895,0.052-5.81,0.103c-2.636,0.069-5.361,0.142-7.884,0.074     c-5.603-0.147-12.746-0.229-20.112-0.229c-7.021,0-13.87,0.076-19.285,0.213c-5.526,0.14-5.892,4.771-6.032,12.316     c-0.015,0.772-0.029,1.556-0.053,2.347c-0.313,10.522-0.548,20.069-0.247,30.364c0.245,8.331,0.271,16.919,0.081,26.254     l0.103,1.562c0.002,0.032,0.002,0.063,0,0.094c0.014,0.254,0.132,1.24,0.295,1.716c0.252,0.737,2.337,4.744,5.493,4.743     l0.125-0.002C16.192,89.627,23.912,89.531,32.487,89.531z"></path></g><g><path d="M64.188,23.525c-1.458,0-2.827-0.047-4.039-0.099c-1.44-0.062-2.917-0.017-4.346,0.027     c-1.537,0.047-3.125,0.095-4.699,0.015c-3.107-0.159-6.284-0.145-9.357-0.132c-2.221,0.01-4.517,0.02-6.777-0.035l-1.077-0.03     c-2.055-0.057-5.88-0.162-7.203-0.145c-0.892,0.012-1.789-0.017-2.687-0.047c-1.235-0.042-2.514-0.083-3.735-0.003     c-3.078,0.205-7.507,0.164-10.771-0.102c-0.413-0.034-0.721-0.396-0.687-0.808c0.033-0.414,0.398-0.716,0.808-0.687     c3.198,0.26,7.536,0.3,10.55,0.1c1.296-0.086,2.612-0.041,3.885,0.001c0.874,0.029,1.747,0.058,2.614,0.046     c1.353-0.017,5.201,0.087,7.267,0.146l1.071,0.029c2.24,0.056,4.524,0.045,6.735,0.035c3.09-0.012,6.291-0.027,9.44,0.134     c1.513,0.078,3.07,0.03,4.577-0.016c1.455-0.045,2.959-0.09,4.455-0.027c1.767,0.076,3.872,0.141,6.078,0.061     c4.344-0.159,8.668-0.176,12.857-0.05c0.043-0.006,2.751-0.162,3.394-0.188c0.475,0,0.946,0.016,1.417,0.032     c0.456,0.015,0.913,0.031,1.375,0.031c1.173,0,4.386-0.168,5.362-0.327c0.411-0.066,0.794,0.211,0.861,0.62     c0.066,0.409-0.211,0.794-0.62,0.861c-1.121,0.183-4.488,0.346-5.603,0.346c-0.479,0-0.952-0.016-1.425-0.032     c-0.458-0.015-0.913-0.079-1.377-0.031c-0.483,0-2.586,0.134-3.356,0.186c-4.228-0.123-8.52-0.106-12.83,0.051     C65.611,23.514,64.889,23.525,64.188,23.525z"></path></g><g><path d="M16.677,17.299c-0.365,0-0.733-0.035-1.066-0.16c-0.388-0.146-0.583-0.579-0.438-0.966     c0.146-0.388,0.579-0.584,0.966-0.438c0.246,0.093,0.741,0.063,1.14,0.039c0.22-0.014,0.413-0.03,0.624-0.025     c0.307,0,0.614,0.003,0.922,0.006c0.609,0.007,1.22,0.013,1.826-0.007c0.82-0.027,1.636-0.062,2.451-0.097     c1.739-0.074,3.535-0.119,5.335-0.151c0.415,0,0.75,0.336,0.75,0.75S28.852,17,28.438,17l0,0c-0.004,0-0.008,0-0.012,0     c-1.762,0-3.54,0.076-5.259,0.149c-0.82,0.035-1.641,0.07-2.465,0.098c-0.629,0.021-1.261,0.015-1.893,0.008     c-0.31-0.003-0.654-0.01-0.928-0.006c-0.156,0-0.33,0.011-0.509,0.022C17.148,17.285,16.913,17.299,16.677,17.299z"></path></g><g><path d="M62.238,19c-0.001,0-0.018,0-0.02,0c-1.178,0-2.093-0.228-2.586-1.061c-0.192-0.239-0.693-0.851-0.572-1.858     c0.116-0.96,0.752-1.773,1.892-2.535c1.257-0.84,2.093-0.434,3.077,0.283c1.059,0.772,1.48,1.957,1.047,3.285     C64.652,18.417,63.564,19,62.238,19z M62.323,14.611c-0.113,0-0.299,0.084-0.538,0.243c-0.74,0.495-1.167,1.017-1.234,1.511     c-0.068,0.501,0.245,0.871,0.258,0.886c0.034,0.04,0.072,0.092,0.097,0.137c0.269,0.487,0.748,0.592,1.202,0.595L62,18.733v-0.75     c1,0,1.449-0.824,1.531-1.076c0.192-0.59,0.17-1.387-0.445-1.835C62.753,14.829,62.5,14.611,62.323,14.611z"></path></g><g><path d="M72.093,19.536c-1.22,0-2.171-0.592-2.545-1.583l-0.293-0.642c-0.039-0.086-0.062-0.179-0.066-0.273     c-0.059-1.198,0.304-2.273,1.021-3.028c1.001-1.054,2.574-1.214,3.761-0.362c1.102,0.792,1.59,2.163,1.244,3.492     c-0.342,1.313-1.379,2.222-2.707,2.373C72.371,19.527,72.231,19.536,72.093,19.536z M70.683,16.827l0.25,0.55     c0.228,0.599,0.887,0.659,1.161,0.659c0.082,0,0.164-0.005,0.245-0.014c0.708-0.081,1.24-0.552,1.425-1.261     c0.15-0.576,0.054-1.377-0.667-1.896c-0.596-0.427-1.297-0.349-1.799,0.178C70.896,15.464,70.675,16.108,70.683,16.827z"></path></g><g><path d="M82.303,19.345c-1.3,0-2.461-0.682-2.959-1.737c-0.458-0.973-0.272-2.076,0.512-3.026c0.954-1.154,3.094-1.454,4.232-0.5     c0.958,0.803,1.392,2.062,1.106,3.209c-0.255,1.022-1.023,1.741-2.109,1.971C82.827,19.317,82.564,19.345,82.303,19.345z      M82.335,14.98c-0.508,0-1.052,0.229-1.323,0.557c-0.286,0.347-0.573,0.877-0.312,1.431c0.301,0.64,1.209,1.013,2.072,0.827     c0.653-0.139,0.885-0.548,0.965-0.867c0.146-0.585-0.101-1.267-0.614-1.697C82.877,15.023,82.559,14.98,82.335,14.98z"></path></g></g></g><g><g><path d="M75.917,44.204c-1.53,0-3.246-0.933-3.397-2.982c-0.064-0.874,0.197-1.653,0.755-2.255    c0.622-0.67,1.562-1.054,2.579-1.054c1.522,0,3.238,0.947,3.411,3.025c0.063,0.874-0.191,1.624-0.733,2.207    C77.906,43.818,76.953,44.204,75.917,44.204z M75.854,39.413c-0.593,0-1.146,0.215-1.48,0.575    c-0.271,0.292-0.392,0.67-0.358,1.124c0.087,1.176,1.079,1.593,1.901,1.593c0.612,0,1.179-0.217,1.517-0.58    c0.255-0.274,0.369-0.623,0.338-1.038C77.668,39.845,76.674,39.413,75.854,39.413z"></path></g><g><path d="M76.341,59.502c-0.79,0-2.311-0.295-3.616-2.272c-0.571-0.865-0.633-1.812-0.174-2.665    c0.596-1.108,2.032-1.882,3.491-1.882c1.402,0,2.545,0.694,3.134,1.906l0.098,0.212c0.485,1.111,0.409,2.291-0.21,3.236    C78.463,58.954,77.445,59.502,76.341,59.502z M76.042,54.183c-0.902,0-1.835,0.47-2.17,1.093    c-0.193,0.359-0.159,0.728,0.105,1.128c0.681,1.03,1.52,1.598,2.364,1.598c0.597,0,1.145-0.294,1.467-0.787    c0.341-0.522,0.374-1.166,0.091-1.813l-0.074-0.161C77.4,54.367,76.621,54.183,76.042,54.183z"></path></g><g><path d="M76.15,74.818c-1.662,0-3.446-1.208-3.641-3.517c-0.086-1.025,0.203-1.931,0.836-2.62c0.652-0.71,1.617-1.117,2.646-1.117    c0.973,0,1.891,0.376,2.519,1.032c0.458,0.479,0.992,1.343,0.932,2.738C79.337,73.741,77.713,74.818,76.15,74.818z M75.992,69.065    c-0.602,0-1.178,0.236-1.542,0.631c-0.347,0.377-0.497,0.875-0.445,1.479c0.119,1.407,1.169,2.143,2.146,2.143    c0.824,0,1.728-0.538,1.793-2.048c0.031-0.696-0.143-1.246-0.516-1.635C77.081,69.272,76.558,69.065,75.992,69.065z"></path></g><g><path d="M65.334,42.75c-0.037,0-0.075-0.002-0.113-0.008c-2.424-0.366-5.052-0.413-7.594-0.457    c-0.85-0.015-1.694-0.03-2.525-0.056c-7.027-0.222-14.237-0.317-22.033-0.312l-0.868,0.001c-1.521,0.001-3.044,0.003-4.563,0    c-0.436-0.026-0.912,0.051-1.441,0.105c-1.216,0.126-2.595,0.269-3.649-0.163c-0.383-0.157-0.566-0.595-0.409-0.979    c0.157-0.383,0.594-0.564,0.979-0.409c0.706,0.289,1.884,0.167,2.925,0.059c0.571-0.06,1.105-0.111,1.601-0.114    c1.519,0.004,3.037,0.001,4.556,0l0.868-0.001c7.803-0.017,15.038,0.09,22.083,0.312c0.823,0.026,1.66,0.041,2.503,0.056    c2.591,0.045,5.269,0.092,7.791,0.473c0.41,0.062,0.691,0.444,0.63,0.854C66.019,42.483,65.699,42.75,65.334,42.75z"></path></g><g><path d="M56.475,57.567c-1.927,0-3.878-0.142-5.765-0.279c-2.512-0.182-5.111-0.371-7.617-0.217    c-2.687,0.165-5.356,0.114-7.938,0.065c-1.665-0.031-3.388-0.064-5.095-0.039c-0.59,0.009-1.375,0.103-2.206,0.202    c-1.971,0.237-4.208,0.506-5.648-0.109c-0.381-0.163-0.558-0.603-0.396-0.984c0.163-0.38,0.603-0.559,0.984-0.396    c1.07,0.457,3.183,0.204,4.881,0c0.871-0.104,1.694-0.203,2.363-0.213c1.735-0.025,3.469,0.007,5.146,0.039    c2.553,0.048,5.191,0.098,7.817-0.062c2.611-0.16,5.258,0.033,7.818,0.218c1.86,0.135,3.784,0.275,5.656,0.275    c0.56-0.023,1.595-0.101,2.684-0.21c2.968-0.298,5.147-0.476,6.14-0.045c0.38,0.165,0.554,0.607,0.389,0.987    s-0.607,0.553-0.987,0.389c-0.71-0.31-3.642-0.015-5.393,0.162C58.134,57.467,57.101,57.575,56.475,57.567z"></path></g><g><path d="M65.355,72.288c-0.035,0-0.07-0.002-0.106-0.007c-5.433-0.766-11.178-0.56-16.735-0.361    c-2.07,0.074-4.21,0.151-6.289,0.175c-2.299,0.026-4.619-0.03-6.864-0.085c-1.75-0.042-3.5-0.085-5.252-0.091    c-0.854-0.015-1.73,0.068-2.674,0.143c-1.606,0.127-3.268,0.259-4.727,0.012c-0.409-0.069-0.684-0.456-0.614-0.864    c0.069-0.409,0.462-0.683,0.864-0.614c1.276,0.215,2.843,0.092,4.358-0.029c0.934-0.074,1.927-0.148,2.798-0.148    c1.763,0.005,3.523,0.048,5.284,0.091c2.231,0.055,4.542,0.11,6.81,0.085c2.061-0.023,4.192-0.1,6.252-0.174    c5.622-0.201,11.435-0.41,16.999,0.375c0.41,0.058,0.695,0.438,0.638,0.848C66.044,72.017,65.723,72.288,65.355,72.288z"></path></g></g></g><g id="SvgjsG1010" featurekey="text1" fill="#ffffff" transform="matrix(2.9666251278088476,0,0,2.9666251278088476,200.50803726916368,320.8936971777656)"><path d="M8.88 8.48 l0.24 0 l0 14.22 c-0.84 1.46 -2.1 2.28 -3.72 2.28 c-1.46 0 -2.84 -0.28 -4.54 -1.78 l1.62 -2.38 c1.78 1.46 3.02 1.1 3.46 0.8 l0.02 -1.62 c-0.22 0.02 -1.28 0.02 -1.28 0.02 c-2.12 0 -3.84 -1.28 -3.84 -3.82 l0 -3.82 c0 -2.42 1.72 -3.9 3.84 -3.9 l0.58 0 c0.84 0 1.6 0.34 2.24 0.8 z M4.68 16.94 l1.28 0 l0 -5.4 l-1.28 0 c-0.36 0 -0.64 0.28 -0.64 0.64 l0 4.14 c0 0.34 0.28 0.62 0.64 0.62 z M14.52 20 l-3.62 0 l0.18 -0.18 l0 -10.82 l-0.18 -0.18 l3.62 0 l-0.18 0.18 l0 10.82 l0 0 z M10.78 6.48 c0 -2.3 3.74 -2.3 3.74 0 c0 2.28 -3.74 2.28 -3.74 0 z M21.06 16.96 l0.88 0 l0.26 -0.16 l0 3.38 l-0.28 -0.14 l-1.06 0 c-1.56 0 -3.12 -0.36 -3.84 -2.5 l0 -6.08 l-1.08 0 l-0.22 0.18 l0 -3.42 l0.22 0.2 l1.08 0 l0 -3.3 l-0.22 -0.2 l3.58 0 l-0.22 0.24 l0 3.26 l1.62 0 l0.22 -0.2 l0 3.42 l-0.22 -0.18 l-1.62 0 l0 5 c0.12 0.3 0.48 0.52 0.9 0.5 z  M27.94 8.48 l-0.16 0 l0.16 0 z M27.78 8.48 l0.16 0 l1.32 0.88 c0.64 -0.68 1.56 -0.92 2.42 -0.92 c0.8 0 1.66 0.18 2.8 0.98 l0.82 0.7 l-1.78 2.44 c-1.38 -1.34 -2.12 -0.98 -2.54 -0.7 l0 7.96 l0.18 0.18 l-3.56 0 l0.18 -0.18 l0 -11.34 z M39.04 16.18 c0 1.18 2.08 1.24 2.14 0.06 l2.9 0 c0 2.8 -1.6 3.82 -3.98 3.82 c-2.6 0 -4.16 -1.44 -4.16 -3.86 l0 -3.86 c0 -2.12 1.04 -3.9 4.2 -3.9 c2.48 0 3.92 1.22 3.92 3.7 c0 2.8 -2.66 3.3 -5.02 4.04 z M41.1 12.18 c0 -1.02 -2.06 -0.98 -2.06 -0.06 l0 1.12 c1.84 -0.32 2.06 -0.6 2.06 -1.06 z M48.720000000000006 12.48 c1.02 0.4 4.14 1.38 3.98 4.08 c-0.16 2.78 -2.06 3.7 -4.12 3.54 c-0.84 -0.06 -2.1 -0.22 -3.26 -0.84 l0.96 -3.04 c0.76 0.4 2.22 0.74 3.08 0.74 c0.14 -0.24 0.18 -0.52 0.12 -0.82 c-1.04 -0.48 -4.14 -1.48 -3.88 -4.36 c0.16 -1.66 0.98 -2.5 1.68 -2.88 c1.78 -1.06 4.34 -0.14 5.02 0.16 l-1.24 2.96 c-0.42 -0.16 -1.6 -0.44 -2.1 -0.44 c-0.2 -0.02 -0.5 0.7 -0.24 0.9 z M57.160000000000004 16.18 c0 1.18 2.08 1.24 2.14 0.06 l2.9 0 c0 2.8 -1.6 3.82 -3.98 3.82 c-2.6 0 -4.16 -1.44 -4.16 -3.86 l0 -3.86 c0 -2.12 1.04 -3.9 4.2 -3.9 c2.48 0 3.92 1.22 3.92 3.7 c0 2.8 -2.66 3.3 -5.02 4.04 z M59.220000000000006 12.18 c0 -1.02 -2.06 -0.98 -2.06 -0.06 l0 1.12 c1.84 -0.32 2.06 -0.6 2.06 -1.06 z M68.74000000000001 16.96 l0.88 0 l0.26 -0.16 l0 3.38 l-0.28 -0.14 l-1.06 0 c-1.56 0 -3.12 -0.36 -3.84 -2.5 l0 -6.08 l-1.08 0 l-0.22 0.18 l0 -3.42 l0.22 0.2 l1.08 0 l0 -3.3 l-0.22 -0.2 l3.58 0 l-0.22 0.24 l0 3.26 l1.62 0 l0.22 -0.2 l0 3.42 l-0.22 -0.18 l-1.62 0 l0 5 c0.12 0.3 0.48 0.52 0.9 0.5 z"></path></g><g id="SvgjsG1011" featurekey="text3" fill="#ffffff" transform="matrix(1.004016156546611,0,0,1.004016156546611,200.29718840316605,421.76706675031426)"><path d="M10.26 20.42 c0 2.18 -1.9 3.6 -4.04 3.84 l0 1.54 l-1.46 0 l0 -1.56 c-2 -0.28 -3.58 -1.62 -4.06 -3.38 l1.34 -0.64 c0.48 1.48 1.74 2.56 3.54 2.56 c1.6 0 2.96 -0.92 2.96 -2.34 c0 -1.6 -1.12 -2.2 -2.78 -2.84 l-1.04 -0.4 c-2.12 -0.8 -3.48 -1.9 -3.48 -3.88 c0 -1.82 1.44 -3.24 3.52 -3.52 l0 -1.6 l1.46 0 l0 1.62 c1.82 0.26 3.12 1.56 3.66 2.88 l-1.26 0.68 c-0.64 -1.28 -1.66 -2.12 -3.12 -2.12 c-1.54 0 -2.6 0.88 -2.6 2.1 c0 1.14 0.72 1.86 2.24 2.44 l1.02 0.38 c2.52 0.94 4.1 2.02 4.1 4.24 z M20.62 13.6 l1.64 0 l0 10.4 c0 3.14 -2.76 4.12 -4.76 4.12 c-1.6 0 -2.62 -0.42 -3.12 -0.78 l0 -1.4 c0.5 0.36 1.52 0.78 3.12 0.78 c1.8 0 3.12 -0.98 3.12 -2.72 l0 -2 c-0.48 1.2 -1.9 2.2 -3.74 2.2 c-2.36 0 -5.22 -1.78 -5.22 -5.4 c0 -3.58 2.86 -5.38 5.22 -5.38 c1.84 0 3.26 1.02 3.74 2.14 l0 -1.96 z M17.060000000000002 22.74 c1.78 0 3.64 -1.26 3.64 -3.94 c0 -2.66 -1.86 -3.92 -3.64 -3.92 c-1.76 0 -3.8 1.3 -3.8 3.92 c0 2.64 2.04 3.94 3.8 3.94 z M26.18 9.86 l0 1.46 l-1.64 0 l0 -1.46 l1.64 0 z M26.18 13.6 l0 10.4 l-1.64 0 l0 -10.4 l1.64 0 z M33.18 14.98 l-2.2 0 l0 6.7 c0 0.62 0.24 1 0.84 1 c0.52 0 0.9 -0.12 1.34 -0.32 l0 1.4 c-0.44 0.22 -0.96 0.36 -1.78 0.36 c-1.06 0 -2.02 -0.48 -2.02 -2.3 l0 -6.84 l-1.44 0 l0 -1.38 l1.44 0 l0 -2.44 l1.62 0 l0 2.44 l2.2 0 l0 1.38 z M43.58 10 l1.66 0 l0 8.92 c0 3.44 -2.24 5.38 -5.08 5.38 s-5.08 -1.94 -5.08 -5.38 l0 -8.92 l1.66 0 l0 8.92 c0 2.62 1.56 3.8 3.42 3.8 s3.42 -1.18 3.42 -3.8 l0 -8.92 z M49.300000000000004 10 l0 14 l-1.66 0 l0 -14 l1.66 0 z M59.78000000000001 9.1 l-6.8 17.5 l-1.68 0 l6.8 -17.5 l1.68 0 z  M76.24000000000001 13.6 l1.64 0 l0 10.4 c0 3.14 -2.76 4.12 -4.76 4.12 c-1.6 0 -2.62 -0.42 -3.12 -0.78 l0 -1.4 c0.5 0.36 1.52 0.78 3.12 0.78 c1.8 0 3.12 -0.98 3.12 -2.72 l0 -2 c-0.48 1.2 -1.9 2.2 -3.74 2.2 c-2.36 0 -5.22 -1.78 -5.22 -5.4 c0 -3.58 2.86 -5.38 5.22 -5.38 c1.84 0 3.26 1.02 3.74 2.14 l0 -1.96 z M72.68 22.74 c1.78 0 3.64 -1.26 3.64 -3.94 c0 -2.66 -1.86 -3.92 -3.64 -3.92 c-1.76 0 -3.8 1.3 -3.8 3.92 c0 2.64 2.04 3.94 3.8 3.94 z M81.80000000000001 9.86 l0 1.46 l-1.64 0 l0 -1.46 l1.64 0 z M81.80000000000001 13.6 l0 10.4 l-1.64 0 l0 -10.4 l1.64 0 z M88.80000000000001 14.98 l-2.2 0 l0 6.7 c0 0.62 0.24 1 0.84 1 c0.52 0 0.9 -0.12 1.34 -0.32 l0 1.4 c-0.44 0.22 -0.96 0.36 -1.78 0.36 c-1.06 0 -2.02 -0.48 -2.02 -2.3 l0 -6.84 l-1.44 0 l0 -1.38 l1.44 0 l0 -2.44 l1.62 0 l0 2.44 l2.2 0 l0 1.38 z  M102.14000000000001 13.44 c0.18 0 0.34 0 0.5 0.04 l0 1.54 c-0.16 -0.04 -0.34 -0.04 -0.48 -0.04 c-1.98 0 -3.6 1.42 -3.88 3.76 l0 5.26 l-1.64 0 l0 -10.4 l1.64 0 l0 2.74 c0.38 -1.54 1.8 -2.9 3.86 -2.9 z M109.26 13.42 c2.36 0 5.52 1.8 5.1 5.98 l-8.78 0 c0.26 2.28 2.04 3.4 3.92 3.4 c1.44 0 2.36 -0.4 3.14 -1.16 l0.96 0.88 c-0.94 1.12 -2.3 1.68 -4.12 1.68 c-2.68 0 -5.54 -1.8 -5.54 -5.38 c0 -3.6 2.96 -5.4 5.32 -5.4 z M109.26 14.84 c-1.54 0 -3.38 1.1 -3.68 3.34 l7.34 0 c-0.2 -2.24 -2.1 -3.34 -3.66 -3.34 z M121.30000000000001 16.12 c-0.4 -0.84 -1.06 -1.36 -2.02 -1.36 c-1 0 -1.68 0.6 -1.68 1.4 c0 0.72 0.38 1.24 1.42 1.62 l1.04 0.36 c1.74 0.62 3.02 1.26 3.02 3.08 c0 1.98 -1.92 3 -3.7 3 c-1.8 0 -3.4 -1.04 -3.78 -2.78 l1.32 -0.4 c0.32 1.14 1.26 1.84 2.46 1.84 c1.04 0 2.08 -0.6 2.08 -1.64 c0 -0.9 -0.62 -1.38 -1.7 -1.76 l-1.16 -0.42 c-1.82 -0.64 -2.6 -1.66 -2.6 -2.9 c0 -1.62 1.44 -2.74 3.24 -2.74 c1.68 0 2.86 0.92 3.42 2.3 z M129.70000000000002 13.42 c2.36 0 5.52 1.8 5.1 5.98 l-8.78 0 c0.26 2.28 2.04 3.4 3.92 3.4 c1.44 0 2.36 -0.4 3.14 -1.16 l0.96 0.88 c-0.94 1.12 -2.3 1.68 -4.12 1.68 c-2.68 0 -5.54 -1.8 -5.54 -5.38 c0 -3.6 2.96 -5.4 5.32 -5.4 z M129.70000000000002 14.84 c-1.54 0 -3.38 1.1 -3.68 3.34 l7.34 0 c-0.2 -2.24 -2.1 -3.34 -3.66 -3.34 z M141.40000000000003 14.98 l-2.2 0 l0 6.7 c0 0.62 0.24 1 0.84 1 c0.52 0 0.9 -0.12 1.34 -0.32 l0 1.4 c-0.44 0.22 -0.96 0.36 -1.78 0.36 c-1.06 0 -2.02 -0.48 -2.02 -2.3 l0 -6.84 l-1.44 0 l0 -1.38 l1.44 0 l0 -2.44 l1.62 0 l0 2.44 l2.2 0 l0 1.38 z  M158.08 10 l1.66 0 l0 14 l-1.66 0 l0 -6.12 l-7.12 0 l0 6.12 l-1.66 0 l0 -14 l1.66 0 l0 6.32 l7.12 0 l0 -6.32 z M163.80000000000004 22.44 l6.66 0 l0 1.56 l-7.06 0 l-1.26 0 l0 -14 l1.66 0 l6.48 0 l0 1.56 l-6.48 0 l0 4.64 l5.04 0 l0 1.52 l-5.04 0 l0 4.72 z M183.88000000000002 24 l-1.44 -3.3 l-7.48 0 l-1.44 3.3 l-1.76 0 l6.24 -14 l1.38 0 l6.26 14 l-1.76 0 z M175.58 19.3 l6.24 0 l-3.12 -7.12 z M191.40000000000003 10 c4.08 0 7.08 3.1 7.08 7 s-3 7 -7.08 7 l-4.16 0 l0 -14 l4.16 0 z M191.38000000000002 22.42 c3.34 0 5.4 -2.42 5.4 -5.42 s-2.06 -5.42 -5.4 -5.42 l-2.48 0 l0 10.84 l2.48 0 z M202.40000000000003 16.9 c1.72 0 2.38 1.4 3.84 1.4 c0.7 0 1.1 -0.42 1.1 -0.78 l0.76 0 c0 1.3 -0.84 2.08 -2.16 2.08 c-1.72 0 -2.4 -1.5 -3.94 -1.5 c-0.72 0 -1.1 0.54 -1.08 0.92 l-0.74 0 c0 -1.3 0.88 -2.12 2.22 -2.12 z"></path></g>
</svg>
